<svg width="38" height="38" viewBox="0 0 38 38" fill="none" xmlns="http://www.w3.org/2000/svg">
<g clip-path="url(#clip0_2_204)">
<path d="M6.33334 34.8335C6.33334 31.4741 7.66786 28.2523 10.0433 25.8768C12.4188 23.5014 15.6406 22.1668 19 22.1668C22.3594 22.1668 25.5812 23.5014 27.9567 25.8768C30.3321 28.2523 31.6667 31.4741 31.6667 34.8335H6.33334ZM20.5833 25.4649V31.6668H27.9601C27.3941 30.0699 26.4119 28.6531 25.1151 27.5628C23.8182 26.4724 22.2538 25.7482 20.5833 25.4649ZM17.4167 31.6668V25.4649C15.7462 25.7482 14.1818 26.4724 12.8849 27.5628C11.5881 28.6531 10.6059 30.0699 10.0399 31.6668H17.4167ZM19 20.5835C13.7513 20.5835 9.5 16.3322 9.5 11.0835C9.5 5.83475 13.7513 1.5835 19 1.5835C24.2488 1.5835 28.5 5.83475 28.5 11.0835C28.5 16.3322 24.2488 20.5835 19 20.5835ZM19 17.4168C22.4992 17.4168 25.3333 14.5827 25.3333 11.0835C25.3333 7.58433 22.4992 4.75016 19 4.75016C15.5008 4.75016 12.6667 7.58433 12.6667 11.0835C12.6667 14.5827 15.5008 17.4168 19 17.4168Z" fill="#6B46FF"/>
</g>
<defs>
<clipPath id="clip0_2_204">
<rect width="38" height="38" fill="white"/>
</clipPath>
</defs>
</svg>
