<svg width="243" height="494" viewBox="0 0 243 494" fill="none" xmlns="http://www.w3.org/2000/svg">
<path d="M240.913 126.667H241.773C242.249 126.667 242.634 127.053 242.634 127.53V183.955C242.634 184.431 242.249 184.818 241.773 184.818H240.913V126.667Z" fill="#303030"/>
<path d="M1.72003 196.909L0.859623 196.909C0.384434 196.909 -0.000782337 196.522 -0.000782295 196.045L-0.000779337 162.076C-0.000779295 161.599 0.384437 161.212 0.859626 161.212L1.72003 161.212L1.72003 196.909Z" fill="#303030"/>
<path d="M1.72003 149.697L0.859623 149.697C0.384434 149.697 -0.000782337 149.31 -0.000782295 148.833L-0.000779337 114.864C-0.000779295 114.387 0.384437 114 0.859626 114L1.72003 114L1.72003 149.697Z" fill="#333333"/>
<path d="M1.72003 96.7272L0.859625 96.7272C0.384437 96.7272 -0.000779953 96.3406 -0.000779911 95.8636L-0.000778457 79.1666C-0.000778415 78.6897 0.384438 78.303 0.859627 78.303L1.72003 78.303L1.72003 96.7272Z" fill="#333333"/>
<path fill-rule="evenodd" clip-rule="evenodd" d="M3.54485 25.8595C1.72003 31.4968 1.72003 38.4625 1.72003 52.394L1.72003 441.606C1.72003 455.537 1.72003 462.503 3.54485 468.141C7.23293 479.534 16.1321 488.466 27.4828 492.168C33.099 494 40.0387 494 53.9179 494H188.715C202.594 494 209.534 494 215.15 492.168C226.501 488.466 235.4 479.534 239.088 468.141C240.913 462.503 240.913 455.537 240.913 441.606L240.913 52.3939C240.913 38.4625 240.913 31.4968 239.088 25.8595C235.4 14.4662 226.501 5.5336 215.15 1.83167C209.534 0 202.594 0 188.715 0L53.9179 0C40.0387 0 33.099 0 27.4828 1.83167C16.1321 5.5336 7.23293 14.4662 3.54485 25.8595ZM62.5225 14.1061V16.697L62.5634 16.6957L62.5223 16.9848C62.5223 23.8215 68.0437 29.3636 74.8548 29.3636L167.779 29.3636C174.59 29.3636 180.111 23.8215 180.111 16.9848L180.07 16.6957L180.111 16.697V14.1061C180.111 12.3572 181.523 10.9394 183.266 10.9394L190.654 10.9394C202.204 10.9394 207.979 10.9394 212.585 12.6863C219.824 15.4321 225.539 21.1682 228.274 28.4348C230.014 33.0578 230.014 38.8545 230.014 50.4479L230.014 443.552C230.014 455.146 230.014 460.942 228.274 465.565C225.539 472.832 219.824 478.568 212.585 481.314C207.979 483.061 202.204 483.061 190.654 483.061H51.9794C40.4295 483.061 34.6545 483.061 30.0487 481.314C22.8093 478.568 17.0947 472.832 14.3592 465.565C12.6188 460.942 12.6188 455.146 12.6188 443.552L12.6188 50.4479C12.6188 38.8545 12.6188 33.0578 14.3592 28.4348C17.0947 21.1682 22.8093 15.4321 30.0487 12.6863C34.6545 10.9394 40.4295 10.9394 51.9794 10.9394L59.3676 10.9394C61.11 10.9394 62.5225 12.3572 62.5225 14.1061Z" fill="#333333"/>
<path fill-rule="evenodd" clip-rule="evenodd" d="M188.945 1.15156L53.6888 1.15156C39.9784 1.15156 33.2593 1.15867 27.8376 2.92688C16.8361 6.5149 8.21082 15.1726 4.63622 26.2154C2.87463 31.6574 2.86755 38.4018 2.86755 52.1637L2.86755 441.836C2.86755 455.598 2.87463 462.343 4.63622 467.785C8.21082 478.827 16.8361 487.485 27.8376 491.073C33.2593 492.841 39.9784 492.849 53.6888 492.849H188.945C202.655 492.849 209.374 492.841 214.796 491.073C225.797 487.485 234.423 478.827 237.997 467.785C239.759 462.343 239.766 455.598 239.766 441.836L239.766 52.1637C239.766 38.4018 239.759 31.6574 237.997 26.2154C234.423 15.1726 225.797 6.5149 214.796 2.92688C209.374 1.15867 202.655 1.15156 188.945 1.15156ZM4.09069 26.0375C2.29395 31.5881 2.29395 38.4466 2.29395 52.1637L2.29395 441.836C2.29395 455.553 2.29395 462.412 4.09069 467.963C7.72203 479.181 16.4843 487.976 27.6604 491.621C33.1902 493.424 40.0231 493.424 53.6888 493.424H188.945C202.61 493.424 209.443 493.424 214.973 491.621C226.149 487.976 234.911 479.181 238.543 467.963C240.339 462.412 240.339 455.553 240.339 441.836L240.339 52.1637C240.339 38.4466 240.339 31.5881 238.543 26.0375C234.911 14.8194 226.149 6.02427 214.973 2.3793C209.443 0.575806 202.61 0.575806 188.945 0.575806L53.6888 0.575806C40.0231 0.575806 33.1902 0.575806 27.6604 2.3793C16.4843 6.02427 7.72203 14.8194 4.09069 26.0375Z" fill="#303030"/>
<path fill-rule="evenodd" clip-rule="evenodd" d="M6.27405 26.7491C4.5896 31.9528 4.5896 38.3827 4.5896 51.2424L4.5896 442.758C4.5896 455.617 4.5896 462.047 6.27405 467.251C9.67843 477.768 17.893 486.013 28.3706 489.43C33.5548 491.121 39.9606 491.121 52.7723 491.121H189.864C202.675 491.121 209.081 491.121 214.265 489.43C224.743 486.013 232.957 477.768 236.362 467.251C238.046 462.047 238.046 455.617 238.046 442.758L238.046 51.2424C238.046 38.3827 238.046 31.9528 236.362 26.7491C232.957 16.2322 224.743 7.98672 214.265 4.56956C209.081 2.87878 202.675 2.87878 189.864 2.87878L52.7723 2.87878C39.9606 2.87878 33.5548 2.87878 28.3706 4.56956C17.893 7.98672 9.67843 16.2322 6.27405 26.7491ZM62.5234 14.1061V16.697L62.5643 16.6957L62.5232 16.9848C62.5232 23.8214 68.0446 29.3636 74.8557 29.3636L167.779 29.3636C174.59 29.3636 180.112 23.8214 180.112 16.9848L180.071 16.6957L180.112 16.697V14.1061C180.112 12.3572 181.524 10.9394 183.267 10.9394L190.655 10.9394C202.205 10.9394 207.98 10.9394 212.586 12.6863C219.825 15.4321 225.54 21.1682 228.275 28.4347C230.015 33.0578 230.015 38.8545 230.015 50.4479L230.015 443.552C230.015 455.145 230.015 460.942 228.275 465.565C225.54 472.832 219.825 478.568 212.586 481.314C207.98 483.061 202.205 483.061 190.655 483.061H51.9803C40.4304 483.061 34.6554 483.061 30.0496 481.314C22.8102 478.568 17.0956 472.832 14.36 465.565C12.6197 460.942 12.6197 455.145 12.6197 443.552L12.6197 50.4478C12.6197 38.8545 12.6197 33.0578 14.36 28.4347C17.0956 21.1682 22.8102 15.4321 30.0496 12.6863C34.6554 10.9394 40.4304 10.9394 51.9803 10.9394L59.3685 10.9394C61.1109 10.9394 62.5234 12.3572 62.5234 14.1061Z" fill="#121515"/>
<path opacity="0.35" d="M207.724 23.7018C207.724 22.5052 208.694 21.5352 209.891 21.5352H217.405C218.602 21.5352 219.572 22.5052 219.572 23.7018V24.9299C219.572 26.1265 218.602 27.0966 217.405 27.0966H209.891C208.694 27.0966 207.724 26.1265 207.724 24.9299V23.7018Z" stroke="black"/>
<path opacity="0.4" d="M220.656 23.158V25.4737C221.126 25.2776 221.432 24.8214 221.432 24.3159C221.432 23.8104 221.126 23.3541 220.656 23.158Z" fill="black"/>
<path d="M208.392 23.5263C208.392 22.7899 208.989 22.193 209.725 22.193H217.571C218.307 22.193 218.904 22.7899 218.904 23.5263V25.1053C218.904 25.8417 218.307 26.4386 217.571 26.4386H209.725C208.989 26.4386 208.392 25.8417 208.392 25.1053V23.5263Z" fill="black"/>
<path fill-rule="evenodd" clip-rule="evenodd" d="M199.825 22.352C201.119 22.3521 202.364 22.845 203.302 23.729C203.372 23.7972 203.485 23.7963 203.555 23.727L204.23 23.0516C204.265 23.0164 204.285 22.9688 204.284 22.9193C204.284 22.8697 204.264 22.8223 204.228 22.7876C201.766 20.4489 197.883 20.4489 195.421 22.7876C195.386 22.8223 195.366 22.8697 195.365 22.9192C195.365 22.9688 195.384 23.0164 195.42 23.0516L196.095 23.727C196.164 23.7964 196.277 23.7973 196.348 23.729C197.286 22.845 198.531 22.352 199.825 22.352ZM199.825 24.5495C200.536 24.5495 201.222 24.8115 201.749 25.2846C201.82 25.3517 201.932 25.3503 202.002 25.2813L202.676 24.6059C202.712 24.5704 202.731 24.5224 202.731 24.4724C202.73 24.4225 202.71 24.3748 202.673 24.3401C201.068 22.8601 198.583 22.8601 196.978 24.3401C196.942 24.3748 196.921 24.4225 196.921 24.4725C196.92 24.5224 196.94 24.5705 196.975 24.6059L197.65 25.2813C197.719 25.3503 197.831 25.3517 197.903 25.2846C198.429 24.8118 199.114 24.5498 199.825 24.5495ZM201.176 26.028C201.177 26.0781 201.157 26.1264 201.121 26.1615L199.954 27.3285C199.92 27.3628 199.874 27.3821 199.825 27.3821C199.776 27.3821 199.73 27.3628 199.695 27.3285L198.529 26.1615C198.493 26.1264 198.473 26.0781 198.474 26.028C198.475 25.9779 198.497 25.9305 198.534 25.8969C199.279 25.2723 200.37 25.2723 201.115 25.8969C201.153 25.9305 201.175 25.978 201.176 26.028Z" fill="black"/>
<path fill-rule="evenodd" clip-rule="evenodd" d="M191.845 21.228H191.261C190.939 21.228 190.677 21.4872 190.677 21.807V26.8245C190.677 27.1443 190.939 27.4035 191.261 27.4035H191.845C192.168 27.4035 192.429 27.1443 192.429 26.8245V21.807C192.429 21.4872 192.168 21.228 191.845 21.228ZM188.536 22.5789H189.12C189.443 22.5789 189.704 22.8381 189.704 23.1579V26.8245C189.704 27.1443 189.443 27.4035 189.12 27.4035H188.536C188.213 27.4035 187.952 27.1443 187.952 26.8245V23.1579C187.952 22.8381 188.213 22.5789 188.536 22.5789ZM186.395 23.9298H185.811C185.488 23.9298 185.227 24.189 185.227 24.5087V26.8245C185.227 27.1443 185.488 27.4035 185.811 27.4035H186.395C186.717 27.4035 186.979 27.1443 186.979 26.8245V24.5087C186.979 24.189 186.717 23.9298 186.395 23.9298ZM183.669 25.0877H183.085C182.763 25.0877 182.501 25.3469 182.501 25.6666V26.8245C182.501 27.1443 182.763 27.4035 183.085 27.4035H183.669C183.992 27.4035 184.253 27.1443 184.253 26.8245V25.6666C184.253 25.3469 183.992 25.0877 183.669 25.0877Z" fill="black"/>
<path d="M32.7953 27.359C34.3651 27.359 35.2975 26.142 35.2975 24.0812C35.2975 23.3052 35.1478 22.6522 34.8613 22.1476C34.4464 21.3631 33.732 20.9391 32.8295 20.9391C31.4864 20.9391 30.5369 21.8338 30.5369 23.0889C30.5369 24.2678 31.3923 25.1243 32.5686 25.1243C33.2915 25.1243 33.8775 24.7893 34.1683 24.2084H34.1812C34.1812 24.2084 34.1983 24.2084 34.2025 24.2084C34.2111 24.2084 34.241 24.2084 34.241 24.2084C34.241 25.6077 33.7064 26.443 32.8039 26.443C32.2735 26.443 31.8628 26.1547 31.7217 25.6925H30.6224C30.8063 26.6975 31.6661 27.359 32.7953 27.359ZM32.8338 24.255C32.1238 24.255 31.619 23.7547 31.619 23.055C31.619 22.3723 32.1494 21.8508 32.8381 21.8508C33.5267 21.8508 34.0571 22.3808 34.0571 23.072C34.0571 23.7547 33.5396 24.255 32.8338 24.255Z" fill="black"/>
<path d="M37.1028 27.2996C37.5091 27.2996 37.7871 27.0112 37.7871 26.6296C37.7871 26.2437 37.5091 25.9596 37.1028 25.9596C36.7007 25.9596 36.4184 26.2437 36.4184 26.6296C36.4184 27.0112 36.7007 27.2996 37.1028 27.2996ZM37.1028 24.1193C37.5091 24.1193 37.7871 23.8352 37.7871 23.4536C37.7871 23.0677 37.5091 22.7836 37.1028 22.7836C36.7007 22.7836 36.4184 23.0677 36.4184 23.4536C36.4184 23.8352 36.7007 24.1193 37.1028 24.1193Z" fill="black"/>
<path d="M41.7909 27.2105H42.8474V26.0699H43.6815V25.1455H42.8474V21.0917H41.2904C40.1997 22.72 39.3314 24.0812 38.7754 25.0946V26.0699H41.7909V27.2105ZM39.7977 25.1073C40.5162 23.8522 41.1579 22.8472 41.7481 21.9822H41.808V25.1709H39.7977V25.1073Z" fill="black"/>
<path d="M46.0342 27.2105H47.1377V21.0917H46.0385L44.4259 22.2112V23.2628L45.9615 22.1942H46.0342V27.2105Z" fill="black"/>
<rect x="189.863" width="3.44159" height="2.87879" fill="#414141"/>
<rect x="238.045" y="49.5151" width="2.86807" height="3.45454" fill="#414141"/>
<rect x="1.72083" y="49.5151" width="2.86802" height="3.45454" fill="#414141"/>
<rect x="1.72083" y="441.03" width="2.86802" height="3.45453" fill="#414141"/>
<rect x="238.045" y="441.03" width="2.86807" height="3.45453" fill="#414141"/>
<rect x="49.3296" y="491.121" width="3.44162" height="2.87878" fill="#414141"/>
<path fill-rule="evenodd" clip-rule="evenodd" d="M145.695 23.0304C148.229 23.0304 150.284 20.9682 150.284 18.4243C150.284 15.8804 148.229 13.8182 145.695 13.8182C143.161 13.8182 141.106 15.8804 141.106 18.4243C141.106 20.9682 143.161 23.0304 145.695 23.0304Z" fill="#262C2D"/>
<path fill-rule="evenodd" clip-rule="evenodd" d="M145.695 21.3031C147.279 21.3031 148.563 20.0142 148.563 18.4243C148.563 16.8344 147.279 15.5455 145.695 15.5455C144.111 15.5455 142.827 16.8344 142.827 18.4243C142.827 20.0142 144.111 21.3031 145.695 21.3031Z" fill="#121515"/>
<path opacity="0.4" fill-rule="evenodd" clip-rule="evenodd" d="M145.696 17.8491C146.013 17.8491 146.269 17.5912 146.269 17.273C146.269 16.9549 146.013 16.697 145.696 16.697C145.379 16.697 145.122 16.9549 145.122 17.273C145.122 17.5912 145.379 17.8491 145.696 17.8491Z" fill="#636F73"/>
<path fill-rule="evenodd" clip-rule="evenodd" d="M107.264 18.4243C107.264 17.4703 108.037 16.697 108.991 16.697H133.643C134.597 16.697 135.371 17.4703 135.371 18.4243C135.371 19.3782 134.597 20.1516 133.643 20.1516H108.991C108.037 20.1516 107.264 19.3782 107.264 18.4243Z" fill="#262C2D"/>
<rect x="72" y="470" width="100" height="3" rx="1.5" fill="black"/>
</svg>
