<svg width="38" height="38" viewBox="0 0 38 38" fill="none" xmlns="http://www.w3.org/2000/svg">
<g clip-path="url(#clip0_2_213)">
<path d="M19 31.6665C22.3594 31.6665 25.5812 30.332 27.9567 27.9565C30.3322 25.5811 31.6667 22.3592 31.6667 18.9998C31.6667 15.6404 30.3322 12.4186 27.9567 10.0432C25.5812 7.66769 22.3594 6.33317 19 6.33317C15.6406 6.33317 12.4188 7.66769 10.0433 10.0432C7.66787 12.4186 6.33335 15.6404 6.33335 18.9998C6.33335 22.3592 7.66787 25.5811 10.0433 27.9565C12.4188 30.332 15.6406 31.6665 19 31.6665ZM19 34.8332C10.2553 34.8332 3.16669 27.7446 3.16669 18.9998C3.16669 10.2551 10.2553 3.1665 19 3.1665C27.7448 3.1665 34.8334 10.2551 34.8334 18.9998C34.8334 27.7446 27.7448 34.8332 19 34.8332ZM19 25.3332C20.6797 25.3332 22.2906 24.6659 23.4784 23.4782C24.6661 22.2905 25.3334 20.6795 25.3334 18.9998C25.3334 17.3201 24.6661 15.7092 23.4784 14.5215C22.2906 13.3338 20.6797 12.6665 19 12.6665C17.3203 12.6665 15.7094 13.3338 14.5217 14.5215C13.3339 15.7092 12.6667 17.3201 12.6667 18.9998C12.6667 20.6795 13.3339 22.2905 14.5217 23.4782C15.7094 24.6659 17.3203 25.3332 19 25.3332ZM19 28.4998C16.4805 28.4998 14.0641 27.499 12.2825 25.7174C10.5009 23.9358 9.50002 21.5194 9.50002 18.9998C9.50002 16.4803 10.5009 14.0639 12.2825 12.2823C14.0641 10.5007 16.4805 9.49984 19 9.49984C21.5196 9.49984 23.9359 10.5007 25.7175 12.2823C27.4991 14.0639 28.5 16.4803 28.5 18.9998C28.5 21.5194 27.4991 23.9358 25.7175 25.7174C23.9359 27.499 21.5196 28.4998 19 28.4998ZM19 22.1665C18.1602 22.1665 17.3547 21.8329 16.7609 21.239C16.167 20.6451 15.8334 19.8397 15.8334 18.9998C15.8334 18.16 16.167 17.3545 16.7609 16.7607C17.3547 16.1668 18.1602 15.8332 19 15.8332C19.8399 15.8332 20.6453 16.1668 21.2392 16.7607C21.8331 17.3545 22.1667 18.16 22.1667 18.9998C22.1667 19.8397 21.8331 20.6451 21.2392 21.239C20.6453 21.8329 19.8399 22.1665 19 22.1665Z" fill="#6B46FF"/>
</g>
<defs>
<clipPath id="clip0_2_213">
<rect width="38" height="38" fill="white"/>
</clipPath>
</defs>
</svg>
