<svg width="138" height="24" viewBox="0 0 138 24" fill="none" xmlns="http://www.w3.org/2000/svg">
<g clip-path="url(#clip0_2_703)">
<path d="M15.402 21V14.034H17.735L18.084 11.326H15.402V9.598C15.402 8.814 15.62 8.279 16.744 8.279H18.178V5.857C17.4838 5.78334 16.7861 5.74762 16.088 5.75C14.021 5.75 12.606 7.012 12.606 9.33V11.326H10.268V14.034H12.606V21H4C3.73478 21 3.48043 20.8946 3.29289 20.7071C3.10536 20.5196 3 20.2652 3 20V4C3 3.73478 3.10536 3.48043 3.29289 3.29289C3.48043 3.10536 3.73478 3 4 3H20C20.2652 3 20.5196 3.10536 20.7071 3.29289C20.8946 3.48043 21 3.73478 21 4V20C21 20.2652 20.8946 20.5196 20.7071 20.7071C20.5196 20.8946 20.2652 21 20 21H15.402Z" fill="#667085"/>
</g>
<g clip-path="url(#clip1_2_703)">
<path d="M60.162 5.656C59.3986 5.99369 58.589 6.21547 57.76 6.314C58.6337 5.79143 59.2877 4.96901 59.6 4C58.78 4.488 57.881 4.83 56.944 5.015C56.3146 4.34158 55.4804 3.89496 54.5709 3.74458C53.6615 3.59421 52.7279 3.74849 51.9153 4.18345C51.1026 4.61842 50.4564 5.30968 50.0771 6.14979C49.6978 6.9899 49.6067 7.93178 49.818 8.829C48.1551 8.74565 46.5283 8.31352 45.0433 7.56066C43.5582 6.8078 42.2481 5.75105 41.198 4.459C40.8263 5.09745 40.6309 5.82323 40.632 6.562C40.632 8.012 41.37 9.293 42.492 10.043C41.828 10.0221 41.1786 9.84278 40.598 9.52V9.572C40.5982 10.5377 40.9324 11.4736 41.5438 12.2211C42.1553 12.9685 43.0065 13.4815 43.953 13.673C43.3366 13.84 42.6903 13.8647 42.063 13.745C42.3299 14.5762 42.85 15.3032 43.5506 15.8241C44.2512 16.345 45.0971 16.6338 45.97 16.65C45.1025 17.3313 44.1092 17.835 43.0469 18.1322C41.9846 18.4294 40.8741 18.5143 39.779 18.382C41.6907 19.6114 43.9161 20.2641 46.189 20.262C53.882 20.262 58.089 13.889 58.089 8.362C58.089 8.182 58.084 8 58.076 7.822C58.8949 7.23017 59.6016 6.49702 60.163 5.657L60.162 5.656Z" fill="#667085"/>
</g>
<g clip-path="url(#clip2_2_703)">
<path d="M88 2C90.717 2 91.056 2.01 92.122 2.06C93.187 2.11 93.912 2.277 94.55 2.525C95.21 2.779 95.766 3.123 96.322 3.678C96.8305 4.1779 97.224 4.78259 97.475 5.45C97.722 6.087 97.89 6.813 97.94 7.878C97.987 8.944 98 9.283 98 12C98 14.717 97.99 15.056 97.94 16.122C97.89 17.187 97.722 17.912 97.475 18.55C97.2247 19.2178 96.8311 19.8226 96.322 20.322C95.822 20.8303 95.2173 21.2238 94.55 21.475C93.913 21.722 93.187 21.89 92.122 21.94C91.056 21.987 90.717 22 88 22C85.283 22 84.944 21.99 83.878 21.94C82.813 21.89 82.088 21.722 81.45 21.475C80.7823 21.2245 80.1775 20.8309 79.678 20.322C79.1694 19.8222 78.7759 19.2175 78.525 18.55C78.277 17.913 78.11 17.187 78.06 16.122C78.013 15.056 78 14.717 78 12C78 9.283 78.01 8.944 78.06 7.878C78.11 6.812 78.277 6.088 78.525 5.45C78.7752 4.78218 79.1688 4.17732 79.678 3.678C80.1777 3.16923 80.7824 2.77573 81.45 2.525C82.088 2.277 82.812 2.11 83.878 2.06C84.944 2.013 85.283 2 88 2ZM88 7C86.6739 7 85.4021 7.52678 84.4645 8.46447C83.5268 9.40215 83 10.6739 83 12C83 13.3261 83.5268 14.5979 84.4645 15.5355C85.4021 16.4732 86.6739 17 88 17C89.3261 17 90.5979 16.4732 91.5355 15.5355C92.4732 14.5979 93 13.3261 93 12C93 10.6739 92.4732 9.40215 91.5355 8.46447C90.5979 7.52678 89.3261 7 88 7ZM94.5 6.75C94.5 6.41848 94.3683 6.10054 94.1339 5.86612C93.8995 5.6317 93.5815 5.5 93.25 5.5C92.9185 5.5 92.6005 5.6317 92.3661 5.86612C92.1317 6.10054 92 6.41848 92 6.75C92 7.08152 92.1317 7.39946 92.3661 7.63388C92.6005 7.8683 92.9185 8 93.25 8C93.5815 8 93.8995 7.8683 94.1339 7.63388C94.3683 7.39946 94.5 7.08152 94.5 6.75ZM88 9C88.7956 9 89.5587 9.31607 90.1213 9.87868C90.6839 10.4413 91 11.2044 91 12C91 12.7956 90.6839 13.5587 90.1213 14.1213C89.5587 14.6839 88.7956 15 88 15C87.2044 15 86.4413 14.6839 85.8787 14.1213C85.3161 13.5587 85 12.7956 85 12C85 11.2044 85.3161 10.4413 85.8787 9.87868C86.4413 9.31607 87.2044 9 88 9Z" fill="#667085"/>
</g>
<g clip-path="url(#clip3_2_703)">
<path d="M120.94 5C120.94 5.53043 120.729 6.03904 120.354 6.41392C119.978 6.78881 119.469 6.99927 118.939 6.999C118.409 6.99873 117.9 6.78777 117.525 6.41251C117.15 6.03725 116.94 5.52843 116.94 4.998C116.94 4.46757 117.151 3.95896 117.526 3.58408C117.902 3.20919 118.411 2.99873 118.941 2.999C119.471 2.99927 119.98 3.21023 120.355 3.58549C120.73 3.96075 120.94 4.46957 120.94 5ZM121 8.48H117V21H121V8.48ZM127.32 8.48H123.34V21H127.28V14.43C127.28 10.77 132.05 10.43 132.05 14.43V21H136V13.07C136 6.9 128.94 7.13 127.28 10.16L127.32 8.48Z" fill="#667085"/>
</g>
<defs>
<clipPath id="clip0_2_703">
<rect width="24" height="24" fill="white"/>
</clipPath>
<clipPath id="clip1_2_703">
<rect width="24" height="24" fill="white" transform="translate(38)"/>
</clipPath>
<clipPath id="clip2_2_703">
<rect width="24" height="24" fill="white" transform="translate(76)"/>
</clipPath>
<clipPath id="clip3_2_703">
<rect width="24" height="24" fill="white" transform="translate(114)"/>
</clipPath>
</defs>
</svg>
